<svg width="44" height="44" viewBox="0 0 44 44" fill="none" xmlns="http://www.w3.org/2000/svg" aria-hidden="true">
  <path fill-rule="evenodd" clip-rule="evenodd" d="M22 3C15.373 3 10 8.373 10 15C10 23.5 20.4 36.1 20.85 36.6C21.15 36.95 21.55 37.1 22 37.1C22.45 37.1 22.85 36.95 23.15 36.6C23.6 36.1 34 23.5 34 15C34 8.373 28.627 3 22 3ZM22 19.5C19.515 19.5 17.5 17.485 17.5 15C17.5 12.515 19.515 10.5 22 10.5C24.485 10.5 26.5 12.515 26.5 15C26.5 17.485 24.485 19.5 22 19.5Z" fill="white"/>
  <path d="M7 40C10.5 37.2 15.5 35.5 22 35.5C28.5 35.5 33.5 37.2 37 40" stroke="white" stroke-width="2.75" stroke-linecap="round"/>
</svg>
