<svg width="44" height="44" viewBox="0 0 44 44" fill="none" xmlns="http://www.w3.org/2000/svg" aria-hidden="true">
  <circle cx="22" cy="11" r="5.5" fill="white"/>
  <path d="M22 18C16.477 18 12 21.806 12 27.5V30.5C12 31.328 12.672 32 13.5 32H30.5C31.328 32 32 31.328 32 30.5V27.5C32 21.806 27.523 18 22 18Z" fill="white"/>
  <circle cx="9" cy="13.5" r="4.25" fill="white"/>
  <path d="M9.25 19.25C5.85 19.25 3.1 21.55 3.1 25.15V27.25C3.1 28.08 3.77 28.75 4.6 28.75H10.4C10.2 28 10.1 27.2 10.1 26.35V25.5C10.1 23.15 11.25 21.1 13.1 19.9C11.85 19.45 10.55 19.25 9.25 19.25Z" fill="white"/>
  <circle cx="35" cy="13.5" r="4.25" fill="white"/>
  <path d="M34.75 19.25C33.45 19.25 32.15 19.45 30.9 19.9C32.75 21.1 33.9 23.15 33.9 25.5V26.35C33.9 27.2 33.8 28 33.6 28.75H39.4C40.23 28.75 40.9 28.08 40.9 27.25V25.15C40.9 21.55 38.15 19.25 34.75 19.25Z" fill="white"/>
  <path d="M14 37.5H30" stroke="white" stroke-width="2.75" stroke-linecap="round"/>
  <path d="M17.5 41H26.5" stroke="white" stroke-width="2.75" stroke-linecap="round"/>
</svg>
