<svg width="44" height="40" viewBox="0 0 44 40" fill="none" xmlns="http://www.w3.org/2000/svg" aria-hidden="true">
  <!-- Personalized trip: map + destination pin -->
  <path d="M38.5 2H5.5C3.567 2 2 3.567 2 5.5V28.5C2 30.433 3.567 32 5.5 32H16.2L20.35 38.05C20.7 38.55 21.45 38.55 21.8 38.05L25.95 32H38.5C40.433 32 42 30.433 42 28.5V5.5C42 3.567 40.433 2 38.5 2ZM39.5 28.5C39.5 29.052 39.052 29.5 38.5 29.5H25.2C24.85 29.5 24.52 29.68 24.32 29.98L22.05 33.35L19.78 29.98C19.58 29.68 19.25 29.5 18.9 29.5H5.5C4.948 29.5 4.5 29.052 4.5 28.5V5.5C4.5 4.948 4.948 4.5 5.5 4.5H38.5C39.052 4.5 39.5 4.948 39.5 5.5V28.5Z" fill="white"/>
  <path d="M22 8.5C18.962 8.5 16.5 10.962 16.5 14C16.5 17.8 22 24.5 22 24.5C22 24.5 27.5 17.8 27.5 14C27.5 10.962 25.038 8.5 22 8.5ZM22 16.75C20.481 16.75 19.25 15.519 19.25 14C19.25 12.481 20.481 11.25 22 11.25C23.519 11.25 24.75 12.481 24.75 14C24.75 15.519 23.519 16.75 22 16.75Z" fill="white"/>
  <path d="M9.5 11.5H13.5V14H9.5V11.5Z" fill="white"/>
  <path d="M9.5 17H15.5V19.5H9.5V17Z" fill="white"/>
  <path d="M30.5 11.5H34.5V14H30.5V11.5Z" fill="white"/>
  <path d="M28.5 17H34.5V19.5H28.5V17Z" fill="white"/>
</svg>
